<?xml version="1.0" encoding="utf-8"?>
<svg xmlns="http://www.w3.org/2000/svg" xmlns:xlink="http://www.w3.org/1999/xlink" version= "1.1" width="500px" height="500px" viewBox="290 852 500 500">
<rect x="290" y="852" width="500" height="500" fill="rgb(241,130,130)"/>
<g id="layer1" opacity="0.0">
<g style="fill:rgb(190,88,156); fill-opacity:1.0; stroke-linejoin: miter">
<path d="M577.51526,936.3307L577.5089,936.3312L577.50433,936.3312L577.51526,936.3307 Z M584.33276,936.1625Q589.69946,936.1625,598.59265,936.3672L598.591,936.3672Q621.4674,937.2313,631.1805,938.0701L631.18726,938.0706L631.1995,938.07135L631.205,938.0716L631.229,938.0725L631.23474,938.0727L631.24646,938.0729L631.25244,938.0729Q632.6327,938.0625,634.01324,938.0625Q640.1863,938.0625,646.4832,938.26843L646.47675,938.26843L683.2216,942.0493L683.2259,942.04974L683.2337,942.0504L683.23724,942.05066L683.2525,942.05176L683.2562,942.052L683.2637,942.0524L683.2674,942.0526L690.99493,942.384L690.988,942.384Q701.79095,943.3419,705.9067,944.4341L705.91876,944.43695L705.94214,944.44196L705.9534,944.4441L706.00006,944.4519L706.0117,944.4536L706.035,944.4564L706.0466,944.4575L713.1872,944.99097L721.71094,948.8384L721.70374,948.8384Q728.2447,958.9213,726.24634,962.49176Q723.6114,961.7658,717.85864,956.69116L717.83765,956.6745L717.7937,956.64325L717.77075,956.62866L717.6771,956.57605L717.6528,956.564L717.6031,956.54266L717.57776,956.5333L713.36536,955.2271L713.3415,955.22095L713.2932,955.21094L713.2688,955.2071L713.1715,955.19653L713.1467,955.19507L713.0977,955.1945L713.0735,955.19543L701.1072,956.1967L690.95795,955.74414L690.9553,955.744L690.9482,955.7438L690.94366,955.74365L690.929,955.7434L690.914,955.7434L681.11725,955.8663L666.1941,954.7007L666.19617,954.7007L666.1891,954.6998L666.1892,954.6998Q649.8207,952.71875,646.3162,952.57825L646.30975,952.57825Q642.51526,952.11273,625.9794,951.4896L625.9777,951.4896L625.9694,951.4892L625.96405,951.489L625.96234,951.48895L625.9579,951.48883L625.95514,951.4888L625.9257,951.4883L625.92535,951.4883Q593.02997,950.9589,584.5486,950.9589Q583.6872,950.9589,583.0813,950.9643L583.075,950.9643Q576.2963,950.9804,570.07367,951.5235L570.0724,951.5235Q562.9262,952.0955,556.86523,952.82806L556.86237,952.82806Q550.1446,953.4336,517.1396,958.847L517.1344,958.847L509.9732,959.56134L509.39417,959.5835Q514.58154,958.075,517.02496,957.5894L517.02484,957.5894C517.3867,957.5175,517.6459,957.1992,517.64404,956.8312C517.6422,956.4632,517.3792,956.1473,517.0173,956.07916L517.0121,956.0782L516.9956,956.0757L516.96295,956.0717L516.9468,956.07025L516.8812,956.06647L516.86505,956.06604L516.83215,956.0662L516.8154,956.06683L510.3108,956.5287L510.3076,956.5288L510.30573,956.5288L510.29773,956.52905L510.2968,956.52905Q503.30392,956.6983,496.29547,956.9743L496.2887,956.9747L496.2748,956.9756L496.2677,956.97614L496.24042,956.9787L496.2331,956.9795L496.2197,956.98114L496.21362,956.982Q487.36887,958.2857,480.92734,959.45264L480.92252,959.45264Q475.94287,959.80914,469.3013,960.9294L469.29605,960.93036L469.28674,960.9321L469.28268,960.9329L469.2641,960.93677L469.26007,960.9376L469.2508,960.9397L469.24554,960.9409Q461.85898,962.7573,427.787,967.8006L427.7827,967.8006Q392.89816,971.3643,386.11133,972.21106L386.10837,972.2115L386.1021,972.21234L386.09882,972.21277L386.087,972.21454L386.0833,972.21515L386.07776,972.21606L386.0759,972.2164L379.61072,973.33124L379.607,973.3319L379.60498,973.3323L379.60672,973.3323L379.6032,973.3326Q372.93268,974.499,366.38016,976.3915L366.37897,976.39185L366.37378,976.3934L366.36978,976.39453L366.35843,976.3981L366.35513,976.3992L366.34897,976.4012L366.3461,976.4021L366.32742,976.40845L366.3149,976.4131L366.30325,976.4177L366.2982,976.4186Q321.2619,991.80817,319.29263,991.8899L319.27377,991.8914L319.23688,991.8957L319.21884,991.89844L319.14636,991.9121L319.12842,991.91614L319.09283,991.92554L319.0752,991.9309Q314.41754,993.527,305.22293,994.95966L304.66922,994.7928L309.01077,991.1523L319.52148,986.4375L356.10797,971.35706L356.11124,971.35706Q373.32898,965.8477,377.1604,965.4172L377.16708,965.4163L377.1807,965.4144L377.18762,965.4134L377.21466,965.4089L377.2216,965.4076L377.23502,965.40497L377.24152,965.4036Q383.9764,963.9053,391.232,963.16364L391.23218,963.16364L391.23337,963.1635L391.23553,963.16327L391.23663,963.16315L391.23557,963.16327L425.61353,959.4882L425.6164,959.4879L425.62207,959.48724L425.62488,959.4869L425.63666,959.48535L425.63928,959.48505L425.6454,959.4842L425.64886,959.48364L432.84094,958.37555L432.85147,958.3737L432.87222,958.3696L432.88245,958.3674L432.92368,958.3575L432.93375,958.35486L432.95422,958.34906L432.96463,958.3459L435.11978,957.6353L435.1199,957.6353C435.43533,957.5313,435.6481,957.2366,435.6481,956.9049L435.6481,956.90393C435.6481,956.69867,435.56638,956.5026,435.4208,956.3581L435.42084,956.3581L435.25168,956.288L435.41974,956.3571C435.37253,956.3104,435.31995,956.2705,435.26343,956.2379L435.2591,956.2379L473.11087,950.1712L512.01495,948.0471L512.02466,948.0464L512.0431,948.0447L512.05176,948.04376L512.0887,948.03906L512.0973,948.0378L512.1158,948.0348L512.12573,948.033L554.98914,939.3536L554.99304,939.3527L554.995,939.3523Q562.3281,937.8072,570.4207,937.0188L570.42096,937.0188L577.51556,936.3307L577.5181,936.33057L577.51685,936.33057L577.51935,936.3303L577.52094,936.3303Q579.4586,936.1625,584.33276,936.1625 Z M519.2989,1051.7267L526.3535,1052.0396L533.33105,1052.9797L539.2111,1054.073L539.1818,1054.6558L539.1818,1054.6559C539.1637,1055.0173,539.3997,1055.3429,539.74994,1055.4371L539.74963,1055.4371L544.0636,1056.601L544.0787,1056.6045L544.1071,1056.6104L544.1205,1056.6127L544.1778,1056.6213L544.1913,1056.623L544.22015,1056.6259L544.23553,1056.627L551.46594,1056.8934L551.46045,1056.8934Q558.36163,1057.9598,564.97174,1059.379L564.96826,1059.379L571.69543,1061.1599L571.6925,1061.1599Q574.99585,1062.2078,591.2079,1068.3517L591.20197,1068.3517L597.20807,1071.6705L601.74335,1075.5244L601.7918,1076.6804Q595.77185,1072.7671,591.3665,1070.7667L591.36426,1070.7657L591.35736,1070.7627L591.3527,1070.7606L591.33875,1070.7548L591.3341,1070.7529L591.327,1070.7501L591.3246,1070.7491Q588.14624,1069.5264,571.6492,1064.1826L571.6445,1064.1812L571.6352,1064.1783L571.6306,1064.177L571.6138,1064.1722L571.60815,1064.1708L571.6006,1064.1688L571.59863,1064.1683L565.2974,1062.5939L565.2976,1062.5939C565.2637,1062.5854,565.2241,1062.578,565.18427,1062.5742L565.18225,1062.5742C565.1568,1062.5718,565.1372,1062.5707,565.1104,1062.5707C565.0505,1062.5707,564.99664,1062.5769,564.9386,1062.5902L564.98785,1062.5847L564.93896,1062.5902C564.7829,1062.6259,564.64014,1062.7091,564.5313,1062.8339L564.5358,1062.8339L564.51624,1062.8516C564.4226,1062.9655,564.3658,1063.1012,564.3478,1063.2417Q557.92773,1062.1688,551.7264,1060.9791L551.7265,1060.9791L551.7216,1060.9781L551.7147,1060.9768L551.70264,1060.9747L551.6979,1060.974L551.6907,1060.9729L551.68823,1060.9725Q535.0628,1058.6017,531.5921,1058.3473L531.59265,1058.3473L531.5862,1058.3468L531.57916,1058.3463L531.5639,1058.3456L531.5588,1058.3455L531.55,1058.3452L531.5463,1058.3451L524.4024,1058.2473L524.3897,1058.2473L524.3789,1058.2474L524.37476,1058.2476L524.3703,1058.2477L524.37,1058.2477Q506.802,1058.7506,504.20065,1059.0618L504.19403,1059.0626L504.18234,1059.0643L504.17728,1059.0652L504.15457,1059.069L504.14926,1059.0698L504.13824,1059.0719L504.13254,1059.0731L497.60538,1060.4568L497.60095,1060.4578L497.59195,1060.4598L497.58737,1060.4609L497.5693,1060.4655L497.5621,1060.4673L497.54517,1060.472C497.53528,1060.4749,497.52567,1060.4781,497.5164,1060.482L497.5114,1060.482Q492.1945,1062.0171,483.30493,1063.9912L483.30292,1063.9912L476.22232,1065.3145L470.9811,1065.3887L469.86575,1063.6942L476.86002,1059.4082L483.70264,1056.9205L490.56937,1055.1783L497.55988,1053.5546L504.7318,1052.3716L512.1365,1051.7999L519.2989,1051.7267 Z M726.3794,1165.2969L726.7689,1168.3528L723.049,1174.4539L719.28394,1179.0187L712.754,1184.2323L705.96967,1187.145L698.84094,1182.7765L702.264,1179.5444L707.4303,1177.5349L707.43384,1177.5344L707.43195,1177.5344L707.4461,1177.5289L707.4513,1177.5289Q713.39435,1175.6592,717.18787,1174.4196L717.18774,1174.4196L717.193,1174.4178C717.2576,1174.3964,717.32416,1174.3641,717.38086,1174.326L717.4193,1174.2944L717.41943,1174.2943L717.4246,1174.2943C717.4552,1174.2705,717.4843,1174.2443,717.51056,1174.2166L717.51074,1174.2163L721.96216,1169.516L726.3794,1165.2969 Z M566.8652,1214.7648L566.86475,1214.765L566.8629,1214.7659L566.8652,1214.7648 Z M384.66388,1218.7369Q384.60413,1218.8309,384.5494,1218.9203C384.54037,1218.935,384.53296,1218.9504,384.52716,1218.9663L384.52332,1218.9663C384.4905,1219.029,384.4671,1219.095,384.45267,1219.1638L384.45264,1219.1638C384.4276,1219.2831,384.4311,1219.4077,384.464,1219.5269L384.46014,1219.5269L384.14746,1220.004L381.35626,1223.7651L381.35104,1223.7725L381.3417,1223.786L381.3376,1223.7922L381.31973,1223.8198L381.31577,1223.8262L381.30725,1223.8402L381.3027,1223.8479L380.0685,1226.0535L380.06622,1226.0535Q379.44492,1226.9921,378.79266,1227.771L378.78296,1227.7833L378.76422,1227.8087L378.7552,1227.8218L378.7211,1227.8745L378.71298,1227.888L378.6976,1227.9153L378.69037,1227.9292Q378.1738,1228.9945,377.629,1229.9471L377.62524,1229.9471L376.83682,1230.9797L376.03494,1231.6858L375.5233,1231.8572L375.41922,1231.77L375.7409,1230.6727L376.10117,1230.0256L376.74414,1229.0647L376.75104,1229.0538L376.7615,1229.0364L376.75775,1229.0364C376.76868,1229.0214,376.7788,1229.0057,376.78824,1228.9893L376.7845,1228.9893C376.79312,1228.9779,376.8009,1228.9657,376.80768,1228.9529Q376.81296,1228.9429,376.8182,1228.9329L376.81485,1228.9329L376.81516,1228.9321L376.8186,1228.9321Q377.9005,1226.8793,379.32764,1225.0072L379.33093,1225.0028L379.33725,1224.9941L379.3403,1224.9899L379.35257,1224.9723L379.35556,1224.9679L379.3615,1224.959L379.36447,1224.9545Q379.60556,1224.5763,380.89587,1223.1387L380.8997,1223.1387C380.91562,1223.1438,380.9318,1223.1486,380.94818,1223.1528L380.94885,1223.1528C380.9916,1223.1638,381.0366,1223.1714,381.0818,1223.1748L381.09265,1223.1752L381.08826,1223.1752C381.10217,1223.176,381.11984,1223.1768,381.13467,1223.177L381.14008,1223.177C381.1786,1223.177,381.21902,1223.1736,381.25134,1223.1688L381.25217,1223.1688C381.41342,1223.145,381.5658,1223.0703,381.68494,1222.9508L381.68564,1222.95L382.53757,1222.094L382.55365,1222.0763L382.58435,1222.0391L382.59897,1222.0195L382.65283,1221.9398L382.6655,1221.919L382.68866,1221.8765L382.69916,1221.8549L383.13684,1220.8351L383.13303,1220.8351Q383.97195,1219.6567,384.66003,1218.7369 Z M723.532,1145.4392Q729.2613,1145.9115,733.36084,1146.9664L733.3675,1146.968L733.37335,1146.9694L733.37256,1146.9691L733.38306,1146.9716L733.382,1146.9714L733.38666,1146.9725L733.39233,1146.9738Q737.5799,1147.866,737.9,1149.1819L737.89264,1149.1819L735.43756,1150.8721L722.51337,1154.9353L722.4944,1154.942L722.45685,1154.9572L722.4383,1154.9656L722.36584,1155.0017L722.348,1155.0115L722.3132,1155.0325L722.29614,1155.0437Q719.4467,1157.0856,690.78674,1170.1018L690.77985,1170.1018L669.94855,1176.0049L669.9441,1176.0061L669.932,1176.0098L669.9244,1176.0122L669.89905,1176.0208C669.88794,1176.0245,669.87726,1176.0289,669.867,1176.034L669.8603,1176.034Q663.9898,1178.0746,658.44385,1180.8138L658.44165,1180.815L658.4366,1180.8175L658.4337,1180.819L658.4281,1180.8219L658.4045,1180.8359L658.4017,1180.8359Q644.3142,1188.2338,616.55334,1206.4736L616.55194,1206.4736Q608.595,1211.2648,577.24884,1224.9021L577.24304,1224.9021L566.39105,1227.6934L566.3692,1227.7001L566.32654,1227.7152L566.3057,1227.7236L566.2237,1227.7611L566.2037,1227.7714L566.1643,1227.7937L566.14496,1227.8058L563.5134,1229.6265L563.5078,1229.6265Q557.11224,1231.6519,550.1705,1233.1814L550.1654,1233.1826L550.15985,1233.184L550.1598,1233.184Q537.0621,1236.2089,523.7085,1236.3005L531.1984,1234.9235L531.1997,1234.9235C531.5651,1234.8564,531.82983,1234.5376,531.82983,1234.167C531.82983,1233.7964,531.56537,1233.4781,531.2008,1233.4108L531.1991,1233.4106L531.19464,1233.4098L531.17474,1233.4069L531.1336,1233.4026L531.11237,1233.4012L531.02936,1233.3995L531.0084,1233.4L530.96655,1233.4026L530.9456,1233.4047Q529.9908,1233.5424,527.8138,1233.5424Q522.45856,1233.5424,509.99612,1232.7006L509.99142,1232.7002L509.98148,1232.6997L509.97623,1232.6996L509.95483,1232.699L509.95026,1232.6989L509.9388,1232.6987L509.93195,1232.6987L494.36264,1232.9484Q482.7397,1232.398,468.47333,1229.1732L468.47464,1229.1732Q431.39584,1220.4766,408.19125,1210.6477L408.1872,1210.6477Q353.25232,1177.9536,332.96744,1149.9827L332.9641,1149.9827L333.0729,1149.5852L333.07623,1149.5852Q360.6868,1173.8739,411.81387,1204.4963L411.82443,1204.5023L411.84424,1204.513L411.8535,1204.5176L411.89374,1204.5371L411.90323,1204.5415L411.92368,1204.5504L411.93463,1204.5549Q429.46588,1211.2498,450.0861,1216.8114L450.0865,1216.8114C450.13144,1216.8235,450.16946,1216.8303,450.21585,1216.8346L450.21533,1216.8346L450.22418,1216.8354C450.23755,1216.8363,450.2665,1216.8376,450.27805,1216.8379L450.28635,1216.8379C450.34137,1216.8379,450.39417,1216.832,450.44525,1216.8213L450.4455,1216.8213C450.67175,1216.7734,450.87305,1216.6233,450.97934,1216.4023L450.97482,1216.4023L450.9814,1216.3982C451.14053,1216.0624,451.03683,1215.6608,450.73483,1215.444L450.73477,1215.444Q450.66833,1215.3962,450.5884,1215.3441L450.59293,1215.3441Q466.469,1219.514,481.71008,1222.4083L481.714,1222.409L481.7161,1222.4094L481.7143,1222.409L481.72305,1222.4106L481.7225,1222.4106L481.72916,1222.4119L481.73636,1222.4131Q501.55542,1225.4681,521.4591,1225.6666L521.4809,1225.6666Q527.9894,1225.5472,534.1694,1224.6505L534.1706,1224.6504L534.17303,1224.65L534.17426,1224.6498L534.1829,1224.6484L534.1834,1224.6484L534.18964,1224.6475L534.1954,1224.6465L540.609,1223.4906L540.6158,1223.4893L540.6187,1223.4888L540.6264,1223.4873Q552.8744,1220.987,567.03973,1215.2479L567.04126,1215.2473L567.04895,1215.2441L567.0551,1215.2416L567.0708,1215.2346L567.07654,1215.2319L567.08453,1215.2281L567.0868,1215.227L605.33954,1196.6547L605.34283,1196.6531L605.35254,1196.6482L605.35895,1196.6449L605.37933,1196.6339L605.3849,1196.6307L605.39557,1196.6246L605.4007,1196.6217L651.9559,1168.5645L651.9578,1168.564Q651.95795,1168.5638,651.95807,1168.5638L651.95685,1168.5638L651.969,1168.5565L651.972,1168.5565Q658.29785,1165.2316,663.93024,1163.2819L663.9264,1163.2819L687.72437,1156.5884L687.73175,1156.5862L687.74225,1156.5829L687.74536,1156.5818L687.7647,1156.5754L687.7684,1156.5742L687.7772,1156.5712L687.7832,1156.5691L687.78973,1156.5667L687.7912,1156.5662L687.7994,1156.5632Q706.72614,1149.449,709.65216,1148.7372L709.6612,1148.7347L709.6759,1148.7306L709.6816,1148.7289L709.709,1148.7205L709.71545,1148.7184L709.72815,1148.7141L709.7344,1148.7119Q715.6672,1146.5428,723.5247,1145.4392 Z M452.91995,1246.8866L452.91998,1246.8867L452.9199,1246.8867L452.91995,1246.8866 Z M629.89825,1205.4661Q635.30756,1208.9385,640.8311,1212.2402L640.8373,1212.2438L640.8438,1212.2474L640.8442,1212.2476L640.8551,1212.2537L640.8556,1212.254L640.86,1212.2565L640.8639,1212.2585L647.1748,1215.6222L647.20074,1215.6343L647.2539,1215.6554L647.2811,1215.6644L647.3908,1215.6943L647.4189,1215.7003L647.4754,1215.7091L647.5038,1215.7119L650.76306,1215.8514L650.7566,1215.8514Q656.45056,1219.3766,662.59094,1223.9583L662.6012,1223.9656L662.62244,1223.9799L662.6334,1223.9868L662.6769,1224.013L662.6884,1224.0194L662.71063,1224.0312L662.7213,1224.0366L669.6305,1227.3141L669.6238,1227.3141Q675.838,1232.9185,680.4693,1236.7769L680.4709,1236.7782L680.47595,1236.7823L680.47943,1236.7852L680.4873,1236.7914L680.4883,1236.7922L680.4911,1236.7944L680.4929,1236.7958L685.70575,1240.8002L687.14343,1246.1571L684.04626,1254.468L675.68085,1252.1267L675.6741,1252.1267Q670.60333,1247.4346,664.87177,1242.9479L664.8652,1242.9479L660.81647,1238.4222L657.0935,1233.5763L657.20264,1230.2699C657.2118,1229.9918,657.0701,1229.7305,656.832,1229.5865L656.83215,1229.5865Q656.82965,1229.585,656.82935,1229.5848L656.82666,1229.5831Q642.2428,1220.7561,639.2166,1218.5509L639.2168,1218.5509L633.71924,1214.53L628.5024,1209.7996L629.89197,1205.4661 Z M624.7631,1247.0148L625.7314,1247.2151L626.2866,1247.5726L626.2869,1247.9019L625.41364,1248.763L623.6741,1249.7927L622.02026,1250.5372L620.61005,1251.0613L620.6108,1251.0613L619.4777,1251.4811L619.4735,1251.4827L619.4657,1251.4857L619.4621,1251.4872L619.44684,1251.4934L619.4432,1251.4949L619.4357,1251.498L619.43195,1251.4998Q615.0056,1253.4718,614.48157,1253.6376L614.47546,1253.6376C614.45416,1253.6407,614.4333,1253.6448,614.4144,1253.6492L614.4147,1253.6492L614.4109,1253.65C614.37805,1253.6578,614.35205,1253.6659,614.32275,1253.6766L613.00464,1254.1593L610.3743,1255.0382L610.374,1255.0382L610.371,1255.0392L610.3708,1255.0392Q607.46204,1255.9409,604.61426,1256.5977C604.6035,1256.5553,604.589,1256.5134,604.57074,1256.4727C604.57074,1256.4727,604.5707,1256.4725,604.5707,1256.4725L604.5706,1256.4725C604.4891,1256.2908,604.3439,1256.1533,604.1693,1256.0791L604.1687,1256.079L604.1676,1256.0782C604.0731,1256.0387,603.9754,1256.0181,603.8691,1256.0181L603.86847,1256.0181C603.86566,1256.0181,603.84906,1256.0182,603.8379,1256.0188L603.8368,1256.0188L603.83295,1256.0189L603.8282,1256.0189C603.8103,1256.02,603.7765,1256.0221,603.7777,1256.0221L603.77936,1256.0221C603.7717,1256.0227,603.76416,1256.0237,603.7568,1256.0249L603.75073,1256.0249L602.93744,1256.089L602.9273,1256.0901L602.90985,1256.0922L602.9025,1256.0931L602.8679,1256.0983L602.8606,1256.0994L602.84344,1256.1024L602.8336,1256.1044L601.46924,1256.4026L601.4478,1256.4083L601.40546,1256.4215L601.3845,1256.429L601.3031,1256.4623L601.2827,1256.4717L601.24365,1256.4918L601.225,1256.5026L599.9146,1257.3239L599.9086,1257.3239Q598.962,1257.7389,597.6531,1258.17L597.64923,1258.1714L597.64185,1258.174L597.64197,1258.174Q590.55023,1260.5747,585.84485,1261.6644L585.8412,1261.6653L585.83575,1261.6666L585.834,1261.6671L585.8244,1261.6696L585.8247,1261.6696Q584.4409,1262.0065,583.0848,1262.2087L583.0789,1262.2087L581.82684,1262.3329L581.1693,1262.2948L581.9665,1261.9249L581.9607,1261.9249Q588.8112,1260.1276,593.4438,1258.3607L593.444,1258.3607L594.72986,1257.8912L594.7298,1257.8912C595.0258,1257.7832,595.2209,1257.5082,595.2346,1257.2035L595.22864,1257.2035Q596.29395,1256.8153,597.35175,1256.4741L597.35065,1256.4741Q603.85803,1254.4865,605.10596,1253.9849L605.1058,1253.9849L606.37604,1253.494L606.3819,1253.4917L606.3916,1253.4877L606.39545,1253.486L606.414,1253.4779L606.4181,1253.4761L606.42694,1253.472L606.4323,1253.4696L606.4376,1253.467L606.4405,1253.4657L606.4457,1253.4633Q609.78076,1251.8148,610.3109,1251.6847L610.3158,1251.6835L610.3277,1251.6803L610.3347,1251.6783L610.36017,1251.6708L610.3662,1251.669L610.37976,1251.6646L610.38727,1251.662Q612.9277,1250.7504,615.2915,1250.1101L615.3086,1250.1049L615.342,1250.0933L615.3583,1250.0869L615.4231,1250.0593L615.4389,1250.052L615.47034,1250.036L615.4923,1250.0234L615.49536,1250.0215L615.49554,1250.0215Q618.3982,1248.2817,618.8377,1248.2562L618.8573,1248.2543L618.89514,1248.2491L618.9134,1248.246L618.98785,1248.2303L619.0068,1248.2256L619.0441,1248.2147L619.062,1248.2089L619.06305,1248.2086L619.06256,1248.2086L619.06354,1248.2083L619.064,1248.2083Q620.6206,1247.6301,622.10876,1247.2802L622.10254,1247.2802L623.53656,1247.0391L624.7631,1247.0148 Z M453.73575,1229.993L454.52487,1234.9598L454.52905,1234.9805L454.53903,1235.0212L454.54483,1235.0414L454.5713,1235.1207L454.57874,1235.1404L454.5952,1235.179L454.60425,1235.1979L456.94086,1239.6262L458.12396,1246.9612L458.1252,1246.9683L458.12793,1246.9825L458.1294,1246.9897L458.13562,1247.0181L458.1373,1247.0251L458.1408,1247.0392L458.14264,1247.0461L460.1033,1254.0526L461.5876,1260.9135L460.56052,1266.9381L453.08575,1265.501L451.36823,1258.2067L451.2266,1251.675L453.59775,1247.25L453.5977,1247.2501L453.59888,1247.248C453.61844,1247.211,453.63477,1247.1736,453.6486,1247.1327C453.6846,1247.0261,453.69672,1246.9135,453.68433,1246.8018L453.68433,1246.8016C453.67877,1246.7517,453.66855,1246.7025,453.65256,1246.6526L451.55637,1240.0872L450.88358,1233.409L453.73575,1229.993 Z M539.5501,1251.7706L543.42944,1252.3584L545.57477,1258.6754L545.58344,1258.6975L545.60284,1258.741L545.6136,1258.7623L545.6601,1258.8448L545.6728,1258.8651L545.6999,1258.9042L545.7143,1258.923L548.6537,1262.4191L550.9191,1269.1824L550.92267,1269.1921L550.9299,1269.211L550.93353,1269.2202L550.94916,1269.257L550.9533,1269.2661L550.96173,1269.2839L550.966,1269.2926L554.36957,1275.8458L556.80634,1282.25L554.6473,1291.2739L545.4411,1287.8665L543.41956,1282.806L542.0672,1276.8079L544.14496,1272.1406C544.22626,1271.958,544.2331,1271.7505,544.1646,1271.5635L544.16455,1271.5635L541.77234,1265.0308L540.0718,1258.5385L539.5501,1251.7706 Z M289.999,851.23C289.90286,851.23,289.80792,851.24817,289.7202,851.2823L289.7179,851.2832C289.62045,851.3214,289.53098,851.3794,289.45523,851.45514L289.45517,851.4552L289.4551,851.45526L289.45493,851.45544L289.45483,851.4555C289.31082,851.5997,289.22995,851.79553,289.22995,851.999L289.23096,1352.0C289.23096,1352.4242,289.57504,1352.769,290.0,1352.769L790.001,1352.77C790.03107,1352.77,790.06335,1352.768,790.0925,1352.7645L790.0846,1352.7645L790.10223,1352.7634C790.23566,1352.7457,790.36084,1352.6938,790.46747,1352.6124L790.4593,1352.6124L790.506,1352.581C790.51825,1352.5703,790.52783,1352.5618,790.54517,1352.5444C790.60645,1352.4832,790.6554,1352.4136,790.6925,1352.3374L790.6943,1352.3337C790.74384,1352.2306,790.77,1352.1178,790.77,1352.001L790.76904,852.0C790.76904,851.5752,790.4248,851.23096,790.0,851.23096L289.999,851.23 Z"/>
</g>
</g>
<g id="layer2">
<g style="fill:rgb(91,47,103); fill-opacity:1.0; stroke-linejoin: miter">
<path d="M332.65787,1148.189L332.12607,1150.1312Q352.43262,1178.3658,407.82834,1211.3292Q431.10764,1221.1992,468.30215,1229.9229Q482.65134,1233.1663,494.35025,1233.7178L509.9443,1233.4678Q527.6864,1234.6663,531.0815,1234.1622L517.97095,1236.5736L522.71765,1237.0723Q536.6652,1237.0901,550.336,1233.9325Q557.3764,1232.3812,563.8609,1230.3213L566.5826,1228.4382L577.50824,1225.628Q608.99475,1211.9307,616.9756,1207.1163Q644.73065,1188.8802,658.7844,1181.5034Q664.30884,1178.7747,670.1582,1176.7446L691.06445,1170.8202Q719.83136,1157.7561,722.7441,1155.6688L735.77905,1151.5708L738.68713,1149.5687Q738.9044,1147.3617,733.55255,1146.2216Q729.35785,1145.1422,723.5048,1144.6654Q715.51337,1145.7802,709.47034,1147.9897Q706.49866,1148.7128,687.5162,1155.8479L663.7182,1162.5414Q657.9943,1164.5187,651.57196,1167.8978L605.0037,1195.9629L566.751,1214.5353Q552.65265,1220.2473,540.4726,1222.7336L534.05896,1223.8895Q527.9286,1224.7789,521.4668,1224.8976Q501.61923,1224.6998,481.85355,1221.6528Q462.2009,1217.9207,441.48532,1212.0625Q448.968,1215.1227,450.2864,1216.0687Q429.7029,1210.517,412.209,1203.8364Q360.27673,1172.7318,332.65787,1148.189"/>
</g>
<g style="fill:rgb(91,47,103); fill-opacity:1.0; stroke-linejoin: miter">
<path d="M375.44485,1229.6234L376.10495,1228.637Q377.22778,1226.4933,378.716,1224.541Q379.05142,1224.0149,380.991,1221.8873L381.14014,1222.408L381.99246,1221.5516L382.4685,1220.4425Q384.88748,1217.0417,386.09482,1215.729Q386.90384,1214.7528,387.84695,1213.9597L389.0872,1213.4286L388.75293,1214.6871Q386.16336,1217.7571,385.2053,1219.322L385.4538,1219.4136L384.777,1220.4464L381.97388,1224.2236L380.7397,1226.4292Q380.07935,1227.4323,379.38235,1228.2646Q378.84753,1229.3676,378.2822,1230.3541L377.40216,1231.5066L376.4266,1232.3655L375.3595,1232.723L374.5396,1232.0366L375.02704,1230.374L375.44485,1229.6234"/>
</g>
<g style="fill:rgb(91,47,103); fill-opacity:1.0; stroke-linejoin: miter">
<path d="M454.22983,1228.2013L450.08597,1233.1644L450.79922,1240.2443L452.91995,1246.8866L450.45334,1251.4897L450.6011,1258.3044L452.4513,1266.162L461.18665,1267.8416L462.37073,1260.8962L460.8501,1253.8677L458.8832,1246.8389L457.67996,1239.379L455.2844,1234.839L454.22983,1228.2013"/>
</g>
<g style="fill:rgb(91,47,103); fill-opacity:1.0; stroke-linejoin: miter">
<path d="M538.7089,1250.8654L539.31024,1258.6663L541.0377,1265.2611L543.4424,1271.8279L541.26086,1276.728L542.68274,1283.0345L544.90234,1288.5907L544.95593,1288.5067L555.1935,1292.296L557.6096,1282.198L555.07306,1275.532L551.64844,1268.9381L549.3367,1262.0364L546.303,1258.4282L544.00714,1251.6681L538.7089,1250.8654"/>
</g>
<g style="fill:rgb(91,47,103); fill-opacity:1.0; stroke-linejoin: miter">
<path d="M629.4666,1204.2736L627.6187,1210.0365L633.23254,1215.127L638.7627,1219.1716Q641.81616,1221.397,656.43396,1230.2446L656.3157,1233.826L660.22375,1238.913L664.32227,1243.4944Q670.14606,1248.0482,675.2846,1252.8143L684.51996,1255.3989L687.95,1246.1952L686.38104,1240.3494L680.9615,1236.186Q676.3079,1232.3092,670.04785,1226.661L663.0509,1223.3419Q656.7909,1218.6711,650.98975,1215.0913L647.5366,1214.9436L641.2257,1211.58Q635.27356,1208.0219,629.4666,1204.2736"/>
</g>
<g style="fill:rgb(91,47,103); fill-opacity:1.0; stroke-linejoin: miter">
<path d="M512.10223,1051.0312L504.64047,1051.6073L497.40744,1052.8002L490.38736,1054.4309L483.4766,1056.1844L476.5242,1058.712L468.78647,1063.4536L470.57047,1066.1636L476.29794,1066.0825L483.47165,1064.742Q492.4166,1062.7557,497.76486,1061.209L504.29202,1059.8253Q506.85886,1059.5182,524.39197,1059.0164L531.5359,1059.1141Q534.978,1059.3663,551.57965,1061.7339Q558.4289,1063.048,565.5241,1064.2164L565.11053,1063.3397L571.41223,1064.9143Q587.89026,1070.2518,591.04846,1071.4669Q595.8509,1073.6478,602.6229,1078.147L602.49756,1075.156L597.64734,1071.0348L591.5122,1067.6445Q575.17346,1061.4523,571.8923,1060.4165L565.13324,1058.6272Q558.4792,1057.1986,551.52924,1056.126L544.2639,1055.8583L539.94995,1054.6945L540.01306,1053.4398L533.45703,1052.221L526.4211,1051.2727L519.3117,1050.9573L512.10223,1051.0312"/>
</g>
<g style="fill:rgb(91,47,103); fill-opacity:1.0; stroke-linejoin: miter">
<path d="M577.4475,935.5647L570.3468,936.25336Q562.2107,937.04596,554.8364,938.59973L511.97305,947.2792L473.02948,949.40546L430.6547,956.197L427.78812,956.98224L434.87906,956.90393L432.72385,957.6155L425.53177,958.7236L391.1538,962.3986Q383.85272,963.14484,377.07452,964.6529Q373.1627,965.0924,355.83258,970.6388L319.2176,985.7309L308.5987,990.4943L303.08426,995.1182L305.1685,995.7464Q314.55875,994.29156,319.3245,992.6584Q321.40558,992.5721,366.59357,977.1303Q373.10916,975.2486,379.74136,974.0891L386.20654,972.97424Q392.99258,972.1276,427.894,968.56226Q462.00732,963.51294,469.4292,961.6878Q476.06885,960.56793,481.02728,960.2161Q487.4703,959.0481,496.32578,957.7428Q503.3464,957.4662,510.35062,957.29694L516.87787,956.8335Q513.19244,957.5664,503.39023,960.5834L510.02512,960.3289L517.25006,959.6083Q550.3069,954.1863,556.9575,953.5916Q563.00586,952.86053,570.1405,952.2896Q576.3355,951.749,583.0881,951.73334Q589.7006,951.6745,625.9423,952.2578Q642.5168,952.88226,646.2447,953.3451Q649.6623,953.47406,666.1209,955.4663L681.09326,956.6357L690.9237,956.51245L701.12146,956.9672L713.1376,955.96173L717.35,957.26794Q723.81946,962.97485,726.5978,963.3495Q729.58984,959.511,722.2224,948.2255L713.38,944.2342L706.1039,943.6907Q701.9203,942.58057,691.0343,941.61597L683.30035,941.2843L646.5253,937.5003Q638.795,937.2472,631.2466,937.30383Q621.515,936.4634,598.6104,935.5983Q581.57153,935.2061,577.4475,935.5647"/>
</g>
<g style="fill:rgb(91,47,103); fill-opacity:1.0; stroke-linejoin: miter">
<path d="M726.9496,1163.6885L721.4176,1168.9725L716.9523,1173.6875Q713.13873,1174.9336,707.1675,1176.8121L701.845,1178.8823L697.58215,1182.9072L705.9072,1188.0089L713.15247,1184.8984L719.8259,1179.5702L723.67725,1174.901L727.5658,1168.5231L726.9496,1163.6885"/>
</g>
<g style="fill:rgb(91,47,103); fill-opacity:1.0; stroke-linejoin: miter">
<path d="M622.3103,1251.2502L620.8779,1251.7823L619.7449,1252.2021Q614.6898,1254.4543,614.58813,1254.3984L613.2562,1254.8862L610.615,1255.7687Q606.67816,1256.99,602.847,1257.7676L603.86896,1256.7872L602.99786,1256.8558L601.6335,1257.154L600.28937,1257.9965Q599.28546,1258.4423,597.8937,1258.9006Q590.7616,1261.3152,586.01843,1262.4137Q584.58887,1262.7622,583.18896,1262.9707L581.84204,1263.1041L580.30457,1263.0153L579.8594,1262.0549L581.7118,1261.1952Q588.5647,1259.3993,593.1803,1257.6382L594.4662,1257.1687L593.2582,1257.1589L594.4817,1256.6594Q595.8126,1256.1621,597.126,1255.7388Q603.6265,1253.7532,604.82855,1253.2675L606.0988,1252.7766Q609.5138,1251.0887,610.12744,1250.938Q612.69495,1250.0165,615.09045,1249.3678Q618.16455,1247.5248,618.7932,1247.4883Q620.41614,1246.8851,621.9724,1246.5222L623.4657,1246.2711L624.833,1246.2439L626.0281,1246.4915L627.0553,1247.1528L627.05615,1248.223L625.8862,1249.3767L624.02893,1250.4764L622.3103,1251.2502"/>
</g>
</g>
</svg>